<mxfile host="app.diagrams.net" agent="Mozilla/5.0 (X11; Linux x86_64) AppleWebKit/537.36 (KHTML, like Gecko) Chrome/138.0.0.0 Safari/537.36" version="26.2.14">
  <diagram name="Page-1" id="0783ab3e-0a74-02c8-0abd-f7b4e66b4bec">
    <mxGraphModel dx="2562" dy="1005" grid="1" gridSize="10" guides="1" tooltips="1" connect="1" arrows="1" fold="1" page="1" pageScale="1" pageWidth="850" pageHeight="1100" background="none" math="0" shadow="0">
      <root>
        <mxCell id="0" />
        <mxCell id="1" parent="0" />
        <mxCell id="PdA31WArUTdSWTHu70uK-5" value="" style="ellipse;html=1;shape=endState;fillColor=#000000;strokeColor=#ff0000;" vertex="1" parent="1">
          <mxGeometry x="170" y="1190" width="30" height="30" as="geometry" />
        </mxCell>
        <mxCell id="PdA31WArUTdSWTHu70uK-12" value="Affichage Page&lt;br&gt;du questionnaire" style="rounded=1;whiteSpace=wrap;html=1;" vertex="1" parent="1">
          <mxGeometry x="131.25" y="660" width="107.5" height="50" as="geometry" />
        </mxCell>
        <mxCell id="PdA31WArUTdSWTHu70uK-13" value="" style="endArrow=classic;html=1;rounded=0;exitX=0.5;exitY=1;exitDx=0;exitDy=0;" edge="1" parent="1" source="PdA31WArUTdSWTHu70uK-12" target="PdA31WArUTdSWTHu70uK-15">
          <mxGeometry width="50" height="50" relative="1" as="geometry">
            <mxPoint x="160" y="770" as="sourcePoint" />
            <mxPoint x="185" y="750" as="targetPoint" />
          </mxGeometry>
        </mxCell>
        <mxCell id="PdA31WArUTdSWTHu70uK-22" value="" style="edgeStyle=orthogonalEdgeStyle;rounded=0;orthogonalLoop=1;jettySize=auto;html=1;" edge="1" parent="1" source="PdA31WArUTdSWTHu70uK-15" target="PdA31WArUTdSWTHu70uK-20">
          <mxGeometry relative="1" as="geometry" />
        </mxCell>
        <mxCell id="PdA31WArUTdSWTHu70uK-63" value="OUI" style="edgeLabel;html=1;align=center;verticalAlign=middle;resizable=0;points=[];" vertex="1" connectable="0" parent="PdA31WArUTdSWTHu70uK-22">
          <mxGeometry x="0.2067" y="1" relative="1" as="geometry">
            <mxPoint as="offset" />
          </mxGeometry>
        </mxCell>
        <mxCell id="PdA31WArUTdSWTHu70uK-15" value="Le Questionnaire&amp;nbsp;&lt;div&gt;est-il rempli ?&lt;/div&gt;" style="rhombus;whiteSpace=wrap;html=1;" vertex="1" parent="1">
          <mxGeometry x="127.5" y="750" width="115" height="120" as="geometry" />
        </mxCell>
        <mxCell id="PdA31WArUTdSWTHu70uK-18" value="" style="endArrow=classic;html=1;rounded=0;exitX=0;exitY=0.5;exitDx=0;exitDy=0;entryX=0;entryY=0.5;entryDx=0;entryDy=0;" edge="1" parent="1" source="PdA31WArUTdSWTHu70uK-15" target="PdA31WArUTdSWTHu70uK-12">
          <mxGeometry width="50" height="50" relative="1" as="geometry">
            <mxPoint x="160" y="850" as="sourcePoint" />
            <mxPoint x="210" y="800" as="targetPoint" />
            <Array as="points">
              <mxPoint x="50" y="810" />
              <mxPoint x="50" y="685" />
            </Array>
          </mxGeometry>
        </mxCell>
        <mxCell id="PdA31WArUTdSWTHu70uK-19" value="NON&lt;div&gt;&lt;br&gt;&lt;/div&gt;" style="edgeLabel;html=1;align=center;verticalAlign=middle;resizable=0;points=[];" vertex="1" connectable="0" parent="PdA31WArUTdSWTHu70uK-18">
          <mxGeometry x="0.0101" y="1" relative="1" as="geometry">
            <mxPoint as="offset" />
          </mxGeometry>
        </mxCell>
        <mxCell id="PdA31WArUTdSWTHu70uK-20" value="Affichage du bouton de résultats" style="rounded=1;whiteSpace=wrap;html=1;" vertex="1" parent="1">
          <mxGeometry x="125" y="900" width="120" height="60" as="geometry" />
        </mxCell>
        <mxCell id="PdA31WArUTdSWTHu70uK-23" value="" style="edgeStyle=orthogonalEdgeStyle;rounded=0;orthogonalLoop=1;jettySize=auto;html=1;" edge="1" parent="1" target="PdA31WArUTdSWTHu70uK-24">
          <mxGeometry relative="1" as="geometry">
            <mxPoint x="185" y="960" as="sourcePoint" />
          </mxGeometry>
        </mxCell>
        <mxCell id="PdA31WArUTdSWTHu70uK-24" value="Clique sur le bouton des résultats" style="rounded=1;whiteSpace=wrap;html=1;" vertex="1" parent="1">
          <mxGeometry x="125" y="990" width="120" height="60" as="geometry" />
        </mxCell>
        <mxCell id="PdA31WArUTdSWTHu70uK-25" value="" style="edgeStyle=orthogonalEdgeStyle;rounded=0;orthogonalLoop=1;jettySize=auto;html=1;" edge="1" parent="1" target="PdA31WArUTdSWTHu70uK-26">
          <mxGeometry relative="1" as="geometry">
            <mxPoint x="185" y="1050" as="sourcePoint" />
          </mxGeometry>
        </mxCell>
        <mxCell id="PdA31WArUTdSWTHu70uK-28" value="" style="edgeStyle=orthogonalEdgeStyle;rounded=0;orthogonalLoop=1;jettySize=auto;html=1;" edge="1" parent="1" source="PdA31WArUTdSWTHu70uK-26" target="PdA31WArUTdSWTHu70uK-5">
          <mxGeometry relative="1" as="geometry" />
        </mxCell>
        <mxCell id="PdA31WArUTdSWTHu70uK-26" value="Affichage page des résultats" style="rounded=1;whiteSpace=wrap;html=1;" vertex="1" parent="1">
          <mxGeometry x="125" y="1080" width="120" height="60" as="geometry" />
        </mxCell>
        <mxCell id="PdA31WArUTdSWTHu70uK-48" value="" style="ellipse;html=1;shape=startState;fillColor=#000000;strokeColor=#ff0000;" vertex="1" parent="1">
          <mxGeometry x="577.5" y="270" width="30" height="30" as="geometry" />
        </mxCell>
        <mxCell id="PdA31WArUTdSWTHu70uK-50" value="" style="endArrow=classic;html=1;rounded=0;exitX=0.485;exitY=0.859;exitDx=0;exitDy=0;entryX=0.5;entryY=0;entryDx=0;entryDy=0;exitPerimeter=0;" edge="1" parent="1" source="PdA31WArUTdSWTHu70uK-48" target="PdA31WArUTdSWTHu70uK-56">
          <mxGeometry width="50" height="50" relative="1" as="geometry">
            <mxPoint x="567.5" y="410" as="sourcePoint" />
            <mxPoint x="592.5" y="330" as="targetPoint" />
          </mxGeometry>
        </mxCell>
        <mxCell id="PdA31WArUTdSWTHu70uK-54" value="Clique sur un questionnaire" style="rounded=1;whiteSpace=wrap;html=1;" vertex="1" parent="1">
          <mxGeometry x="131.25" y="580" width="107.5" height="50" as="geometry" />
        </mxCell>
        <mxCell id="PdA31WArUTdSWTHu70uK-55" value="" style="endArrow=classic;html=1;rounded=0;entryX=0.5;entryY=0;entryDx=0;entryDy=0;exitX=0.5;exitY=1;exitDx=0;exitDy=0;" edge="1" parent="1" source="PdA31WArUTdSWTHu70uK-54">
          <mxGeometry width="50" height="50" relative="1" as="geometry">
            <mxPoint x="184.82999999999993" y="630" as="sourcePoint" />
            <mxPoint x="184.82999999999993" y="660" as="targetPoint" />
          </mxGeometry>
        </mxCell>
        <mxCell id="PdA31WArUTdSWTHu70uK-58" value="" style="edgeStyle=orthogonalEdgeStyle;rounded=0;orthogonalLoop=1;jettySize=auto;html=1;entryX=0.5;entryY=0;entryDx=0;entryDy=0;" edge="1" parent="1" source="PdA31WArUTdSWTHu70uK-56" target="PdA31WArUTdSWTHu70uK-54">
          <mxGeometry relative="1" as="geometry">
            <mxPoint x="440" y="470" as="targetPoint" />
          </mxGeometry>
        </mxCell>
        <mxCell id="PdA31WArUTdSWTHu70uK-61" value="NON" style="edgeLabel;html=1;align=center;verticalAlign=middle;resizable=0;points=[];" vertex="1" connectable="0" parent="PdA31WArUTdSWTHu70uK-58">
          <mxGeometry x="-0.6015" relative="1" as="geometry">
            <mxPoint x="66" y="10" as="offset" />
          </mxGeometry>
        </mxCell>
        <mxCell id="PdA31WArUTdSWTHu70uK-60" value="" style="edgeStyle=orthogonalEdgeStyle;rounded=0;orthogonalLoop=1;jettySize=auto;html=1;entryX=0.5;entryY=0;entryDx=0;entryDy=0;exitX=1;exitY=0.5;exitDx=0;exitDy=0;" edge="1" parent="1" source="PdA31WArUTdSWTHu70uK-56" target="PdA31WArUTdSWTHu70uK-65">
          <mxGeometry relative="1" as="geometry">
            <mxPoint x="743.75" y="590" as="targetPoint" />
          </mxGeometry>
        </mxCell>
        <mxCell id="PdA31WArUTdSWTHu70uK-62" value="OUI" style="edgeLabel;html=1;align=center;verticalAlign=middle;resizable=0;points=[];" vertex="1" connectable="0" parent="PdA31WArUTdSWTHu70uK-60">
          <mxGeometry x="-0.5448" y="-3" relative="1" as="geometry">
            <mxPoint x="-29" y="7" as="offset" />
          </mxGeometry>
        </mxCell>
        <mxCell id="PdA31WArUTdSWTHu70uK-56" value="Clique sur le&amp;nbsp;&lt;div&gt;bouton admin?&lt;/div&gt;" style="rhombus;whiteSpace=wrap;html=1;" vertex="1" parent="1">
          <mxGeometry x="535" y="410" width="115" height="120" as="geometry" />
        </mxCell>
        <mxCell id="PdA31WArUTdSWTHu70uK-64" value="Clique sur le&amp;nbsp;&lt;div&gt;bouton &quot;ajout de questionnaire&quot; et&amp;nbsp;&lt;/div&gt;&lt;div&gt;remplissage du&amp;nbsp;&lt;/div&gt;&lt;div&gt;formulaire?&lt;/div&gt;" style="rhombus;whiteSpace=wrap;html=1;" vertex="1" parent="1">
          <mxGeometry x="840" y="390" width="160" height="160" as="geometry" />
        </mxCell>
        <mxCell id="PdA31WArUTdSWTHu70uK-65" value="Clique sur un questionnaire&lt;span style=&quot;background-color: transparent; color: light-dark(rgb(0, 0, 0), rgb(255, 255, 255));&quot;&gt;?&lt;/span&gt;" style="rhombus;whiteSpace=wrap;html=1;" vertex="1" parent="1">
          <mxGeometry x="686.25" y="590" width="115" height="120" as="geometry" />
        </mxCell>
        <mxCell id="PdA31WArUTdSWTHu70uK-66" value="Clique sur le&amp;nbsp;&lt;div&gt;bouton ?&lt;/div&gt;" style="rhombus;whiteSpace=wrap;html=1;" vertex="1" parent="1">
          <mxGeometry x="1070" y="680" width="115" height="120" as="geometry" />
        </mxCell>
        <mxCell id="PdA31WArUTdSWTHu70uK-67" value="Clique sur le&amp;nbsp;&lt;div&gt;bouton admin?&lt;/div&gt;" style="rhombus;whiteSpace=wrap;html=1;" vertex="1" parent="1">
          <mxGeometry x="1260" y="680" width="115" height="120" as="geometry" />
        </mxCell>
        <mxCell id="PdA31WArUTdSWTHu70uK-72" value="" style="endArrow=classic;html=1;rounded=0;exitX=1;exitY=0.5;exitDx=0;exitDy=0;entryX=0;entryY=0.5;entryDx=0;entryDy=0;" edge="1" parent="1" source="PdA31WArUTdSWTHu70uK-56" target="PdA31WArUTdSWTHu70uK-64">
          <mxGeometry width="50" height="50" relative="1" as="geometry">
            <mxPoint x="730" y="350" as="sourcePoint" />
            <mxPoint x="731" y="464" as="targetPoint" />
          </mxGeometry>
        </mxCell>
        <mxCell id="PdA31WArUTdSWTHu70uK-73" value="" style="endArrow=classic;html=1;rounded=0;exitX=0.5;exitY=0;exitDx=0;exitDy=0;" edge="1" parent="1" source="PdA31WArUTdSWTHu70uK-64">
          <mxGeometry width="50" height="50" relative="1" as="geometry">
            <mxPoint x="897.5" y="380" as="sourcePoint" />
            <mxPoint x="740" y="470" as="targetPoint" />
            <Array as="points">
              <mxPoint x="920" y="380" />
              <mxPoint x="740" y="380" />
            </Array>
          </mxGeometry>
        </mxCell>
        <mxCell id="PdA31WArUTdSWTHu70uK-74" value="NON" style="edgeLabel;html=1;align=center;verticalAlign=middle;resizable=0;points=[];" vertex="1" connectable="0" parent="PdA31WArUTdSWTHu70uK-73">
          <mxGeometry x="-0.8796" y="-1" relative="1" as="geometry">
            <mxPoint x="27" y="1" as="offset" />
          </mxGeometry>
        </mxCell>
        <mxCell id="PdA31WArUTdSWTHu70uK-75" value="Ajout du questionnaire" style="rounded=1;whiteSpace=wrap;html=1;" vertex="1" parent="1">
          <mxGeometry x="1073.75" y="445" width="107.5" height="50" as="geometry" />
        </mxCell>
        <mxCell id="PdA31WArUTdSWTHu70uK-77" value="" style="endArrow=classic;html=1;rounded=0;entryX=0;entryY=0.5;entryDx=0;entryDy=0;" edge="1" parent="1" target="PdA31WArUTdSWTHu70uK-75">
          <mxGeometry width="50" height="50" relative="1" as="geometry">
            <mxPoint x="1000" y="470" as="sourcePoint" />
            <mxPoint x="954.43" y="540" as="targetPoint" />
          </mxGeometry>
        </mxCell>
        <mxCell id="PdA31WArUTdSWTHu70uK-78" value="OUI" style="edgeLabel;html=1;align=center;verticalAlign=middle;resizable=0;points=[];" vertex="1" connectable="0" parent="PdA31WArUTdSWTHu70uK-77">
          <mxGeometry x="0.0612" y="-1" relative="1" as="geometry">
            <mxPoint x="-3" y="9" as="offset" />
          </mxGeometry>
        </mxCell>
        <mxCell id="PdA31WArUTdSWTHu70uK-79" value="" style="endArrow=classic;html=1;rounded=0;exitX=0.429;exitY=0.032;exitDx=0;exitDy=0;exitPerimeter=0;" edge="1" parent="1" source="PdA31WArUTdSWTHu70uK-75">
          <mxGeometry width="50" height="50" relative="1" as="geometry">
            <mxPoint x="920" y="300" as="sourcePoint" />
            <mxPoint x="740" y="380" as="targetPoint" />
            <Array as="points">
              <mxPoint x="1120" y="290" />
              <mxPoint x="740" y="290" />
            </Array>
          </mxGeometry>
        </mxCell>
        <mxCell id="PdA31WArUTdSWTHu70uK-83" value="" style="endArrow=classic;html=1;rounded=0;exitX=0;exitY=0.5;exitDx=0;exitDy=0;" edge="1" parent="1" source="PdA31WArUTdSWTHu70uK-65">
          <mxGeometry width="50" height="50" relative="1" as="geometry">
            <mxPoint x="830" y="660" as="sourcePoint" />
            <mxPoint x="686" y="470" as="targetPoint" />
          </mxGeometry>
        </mxCell>
      </root>
    </mxGraphModel>
  </diagram>
</mxfile>
